<?xml version="1.0" encoding="UTF-8"?>
<svg width="880px" height="360px" viewBox="0 0 880 360" version="1.1" xmlns="http://www.w3.org/2000/svg" xmlns:xlink="http://www.w3.org/1999/xlink">
    <title>award copy 2</title>
    <defs>
        <polygon id="path-1" points="0 0 1022 0 1022 441 0 441"></polygon>
    </defs>
    <g id="award-copy-2" stroke="none" stroke-width="1" fill="none" fill-rule="evenodd">
        <g id="Group-3" transform="translate(475, 104.5) scale(-1, 1) rotate(-8) translate(-475, -104.5)translate(-36, -116)">
            <mask id="mask-2" fill="white">
                <use xlink:href="#path-1"></use>
            </mask>
            <g id="Clip-2"></g>
            <path d="M391.51798,190.817249 C377.81807,201.127414 363.651872,211.788247 354.855007,226.448492 C353.486805,228.727837 353.185315,231.183796 354.006747,233.362036 C354.832012,235.549235 356.686942,237.198912 359.231722,238.009033 L359.479557,238.087102 C366.613117,240.363887 374.442915,237.326893 378.096565,230.863843 C382.405572,223.241284 386.17803,214.651186 388.716422,206.677958 C390.636505,200.650044 391.815637,195.103339 392.216772,190.291246 C391.985545,190.465301 391.75304,190.640635 391.51798,190.817249 Z M274.24348,217.359268 C272.575065,218.50086 271.321838,220.443615 270.975635,222.429883 C270.435253,225.520629 271.326948,228.990199 273.77847,233.349238 C279.543828,243.595412 288.80698,252.007616 301.309873,258.354203 C302.991063,259.207838 304.731018,260.023078 306.525905,260.802483 C305.681478,257.724536 304.65309,254.649148 303.440743,251.582718 C298.943943,240.20519 291.945798,229.261519 283.203865,219.93425 C281.813945,218.452227 280.16597,216.835825 278.197343,216.436524 C277.884355,216.372533 277.58031,216.344377 277.286485,216.344377 C276.02687,216.344377 274.96399,216.86654 274.24348,217.359268 Z M362.333492,366.838739 C379.771367,369.357409 395.190792,376.553792 406.925907,387.65232 C409.171752,389.776808 412.572457,395.41182 416.87891,402.548051 C425.24909,416.417373 437.898895,437.378132 447.259137,438.678421 C449.156225,438.943342 450.822085,438.373826 452.35253,436.941716 C455.649757,433.85481 457.48297,421.082287 458.08595,416.884504 L458.100002,416.788518 C458.978922,410.659499 459.482257,403.331296 460.014975,395.571797 C460.795527,384.203227 461.680835,371.318081 463.985445,359.776737 C466.177635,348.795951 469.393102,340.360711 473.76343,334.163862 C473.041642,333.392135 472.330075,332.629367 471.62745,331.876838 C455.085102,314.152723 437.044247,296.038265 414.45166,286.378244 C397.535005,279.146027 378.762142,276.997223 360.60759,274.920088 C353.270907,274.080532 345.685112,273.212819 338.303717,272.020035 C327.795002,270.323004 318.241857,267.826091 309.77842,264.56897 C311.545202,272.625386 312.08303,280.686921 311.376572,288.661429 C309.723487,307.330045 300.39646,320.02194 290.522662,333.459965 C285.217205,340.679384 279.730342,348.144527 275.503095,356.664235 C274.92311,357.831423 274.1515,359.230258 273.25725,360.850499 C269.687915,367.31355 263.714325,378.1318 266.76244,382.2144 C271.645045,388.751679 294.909597,379.023829 306.090277,374.349955 C309.11923,373.082942 311.511987,372.082129 313.042432,371.571484 C324.458172,367.753805 336.29932,365.81489 347.91435,365.81489 C352.776515,365.81489 357.596522,366.15404 362.333492,366.838739 Z M446.949982,440.915532 C442.259002,440.264108 436.801522,435.779647 430.268387,427.207467 C424.791745,420.022603 419.334265,410.980732 414.949885,403.716519 C410.898932,397.003906 407.401137,391.207638 405.378855,389.294319 C393.983555,378.517023 378.986982,371.525411 362.011562,369.073291 C346.305977,366.804184 329.62055,368.409069 313.756555,373.712609 C312.304037,374.198938 309.945772,375.184393 306.958977,376.433489 C300.552315,379.112136 291.778445,382.781356 283.790237,384.922482 C273.79891,387.599848 267.638805,387.157033 264.95861,383.567161 C261.037962,378.316093 266.960452,367.589989 271.28479,359.75754 C272.166265,358.160335 272.927655,356.781977 273.484645,355.659582 C277.80004,346.96454 283.34439,339.418769 288.707335,332.121282 C298.389507,318.945618 307.53513,306.500727 309.132005,288.461778 C309.86018,280.223629 309.222707,271.885654 307.232362,263.552799 C304.822997,262.555826 302.509445,261.493582 300.291705,260.368627 C287.383845,253.81727 277.802595,245.099191 271.814952,234.457555 C270.101825,231.412883 267.921132,226.814518 268.75534,222.04082 C269.21013,219.436403 270.786565,216.989402 272.973645,215.494582 C274.736595,214.288999 276.751212,213.837226 278.645745,214.223729 C281.263342,214.756131 283.219195,216.652812 284.84673,218.388237 C293.781565,227.921556 300.936842,239.112231 305.535842,250.750841 C307.001135,254.457176 308.20454,258.17375 309.146057,261.895443 C317.812617,265.373971 327.703022,268.021902 338.662695,269.791882 C345.99299,270.974428 353.551957,271.839581 360.86309,272.676578 C379.178607,274.77291 398.117545,276.939632 415.33569,284.30239 C438.331967,294.133905 456.567002,312.433935 473.274147,330.334664 C473.888625,330.992488 474.510767,331.65927 475.140575,332.33373 C475.665627,331.679747 476.204732,331.053919 476.760445,330.457526 C486.654682,319.81973 501.155585,314.599377 515.17998,309.551799 C521.829367,307.15855 528.110835,304.897123 533.873637,302.107133 C535.7324,301.207425 538.284845,300.256525 540.986757,299.250593 C546.927132,297.039078 554.318747,294.286202 557.17907,290.934375 C559.19752,288.569282 559.90781,286.196511 559.349542,283.680401 C557.139467,273.696588 535.79883,263.971298 523.04938,258.160952 C520.114962,256.823548 517.580402,255.669158 515.69609,254.709299 C511.62342,252.636004 507.10618,251.033679 502.324497,249.336648 C491.01479,245.325718 479.319277,241.176568 473.260095,230.323763 C470.190262,224.826971 469.308787,218.375439 468.532067,212.684115 C467.395092,204.365338 466.253007,195.905781 465.14797,187.725223 C462.917455,171.205411 460.61029,154.123762 458.23925,137.337749 C457.85089,134.584873 456.044505,132.419432 453.409022,131.54532 C450.791425,130.678887 448.072905,131.331591 446.136215,133.293543 C439.697615,139.819304 433.735522,147.187181 427.970165,154.313174 C418.993172,165.407863 409.710857,176.880097 398.246572,185.714639 C397.039335,186.643782 395.829542,187.565247 394.595477,188.49823 C394.039765,202.480175 386.746517,220.145419 380.057527,231.976 C376.8114,237.717236 370.687065,241.09594 364.29701,241.09594 C362.463797,241.09594 360.611422,240.81822 358.797372,240.239745 L358.550815,240.160397 C355.33407,239.137827 352.971972,237.006941 351.898872,234.159359 C350.828327,231.320736 351.192415,228.169839 352.923427,225.285143 C361.94641,210.247353 376.937872,198.965811 390.165107,189.011434 C390.911167,188.449597 391.643175,187.899278 392.36624,187.354078 C392.38668,186.052509 392.341967,184.816211 392.229547,183.654142 C391.603572,177.173174 389.056237,170.564225 384.66036,164.010309 C377.19465,152.879785 366.0293,144.142509 351.472187,138.041645 C339.082992,132.848169 324.608917,129.669116 308.453652,128.592794 C297.265307,127.847943 285.803577,127.952888 274.719987,128.055273 C256.827322,128.219089 238.324012,128.389304 220.426237,124.990123 C205.19716,122.097749 190.54168,116.626553 176.866042,108.730113 C163.190405,100.833674 151.119307,90.8703379 140.987455,79.119105 C136.894345,74.3710028 133.077175,69.2863101 129.3852,64.3692728 C125.71622,59.4816711 121.922045,54.4276939 117.878757,49.7371832 C103.813482,33.4234208 85.4123725,20.4371694 64.664495,12.1836624 C43.9166175,3.93015539 21.63574,0.731905426 0.22995,2.93446172 L-9.09494702e-13,0.688391822 C21.7647675,-1.55127902 44.4122875,1.69816342 65.4961475,10.0847709 C86.5800075,18.4726581 105.282607,31.6739179 119.58422,48.2615601 C123.678607,53.0096623 127.495777,58.094355 131.186475,63.0113923 C134.855455,67.898994 138.64963,72.9529712 142.692917,77.6422021 C152.659972,89.202743 164.535612,99.0035426 177.99152,106.774561 C191.447427,114.544299 205.86657,119.925908 220.846535,122.77093 C238.525857,126.129156 256.91547,125.960221 274.699547,125.796405 C285.825295,125.6953 297.329182,125.589075 308.604397,126.340325 C325.007497,127.433284 339.72302,130.668649 352.342165,135.958111 C367.31191,142.233029 378.815797,151.246745 386.53062,162.750974 C391.138562,169.618444 393.809815,176.578062 394.472837,183.436574 C394.5431,184.160947 394.58909,184.900678 394.612085,185.654488 C395.369642,185.077293 396.12209,184.502657 396.871982,183.924182 C408.126757,175.252176 417.324757,163.884887 426.218712,152.891303 C432.018562,145.723076 438.016425,138.311686 444.532952,131.706576 C447.047072,129.158471 450.718607,128.275401 454.118035,129.401635 C457.532792,130.534269 459.967707,133.45352 460.471042,137.021635 C462.84336,153.814047 465.150525,170.899536 467.382317,187.421908 C468.486077,195.602466 469.62944,204.060743 470.765137,212.37696 C471.51503,217.871193 472.365845,224.097478 475.227445,229.221845 C480.872717,239.332359 492.160707,243.33689 503.076945,247.208321 C507.716825,248.854159 512.513837,250.556309 516.716812,252.696155 C518.55769,253.634257 521.07181,254.779688 523.981955,256.105574 C537.96547,262.477757 559.096597,272.108342 561.550675,283.191513 C562.262242,286.402561 561.366715,289.500986 558.892197,292.402319 C555.652457,296.198241 548.278727,298.944718 541.77242,301.367402 C539.121607,302.354137 536.617707,303.28584 534.854757,304.140754 C528.984645,306.981936 522.649522,309.262561 515.942647,311.676286 C502.171197,316.634278 487.930905,321.759925 478.409697,331.99714 C477.82077,332.629367 477.251005,333.296149 476.697847,333.998766 C487.88747,345.938131 501.34721,359.834329 516.107445,370.090741 C534.062707,382.568908 551.587452,388.069539 569.675575,386.90491 C586.38272,385.831148 602.802427,380.856519 618.680475,376.045706 C624.69239,374.224534 630.907427,372.341931 637.062422,370.692253 C658.82719,364.85887 680.811687,362.305646 700.639765,363.306458 C723.972025,364.485165 723.480187,366.720997 700.526067,365.561487 C680.929217,364.570913 659.186167,367.099821 637.644962,372.873052 C631.525737,374.513771 625.327307,376.391255 619.333277,378.207309 C603.33259,383.055236 586.78641,388.066979 569.819932,389.158659 C568.192397,389.263604 566.56614,389.316076 564.94627,389.316076 C548.051332,389.316076 531.604797,383.608115 514.82228,371.946469 C500.000725,361.647822 486.546095,347.797698 475.338587,335.846814 C471.288912,341.742908 468.281677,349.775007 466.19552,360.219552 C463.920292,371.618837 463.040095,384.425915 462.263375,395.726654 C461.728102,403.529667 461.222212,410.898824 460.330517,417.109751 L460.316465,417.205737 C459.129667,425.473322 457.327115,435.373947 453.891917,438.591394 C452.180067,440.192439 450.25232,441 448.147,441 C447.75353,441 447.35495,440.971844 446.949982,440.915532 Z" id="Fill-1" fill="#52D5FF" mask="url(#mask-2)"></path>
        </g>
        <path d="M-10.7034302,220.413181 C19.8063806,212.102401 206.642946,226.631226 264.116762,393.971564" id="Path-4-Copy-2" stroke="#52D5FF" stroke-width="2" transform="translate(126.7067, 306.2932) scale(-1, 1) translate(-126.7067, -306.2932)"></path>
    </g>
</svg>