<?xml version="1.0" encoding="UTF-8"?>
<svg width="880px" height="360px" viewBox="0 0 880 360" version="1.1" xmlns="http://www.w3.org/2000/svg" xmlns:xlink="http://www.w3.org/1999/xlink">
    <title>award copy</title>
    <defs>
        <polygon id="path-1" points="-9.09494702e-13 5.68434189e-14 932 5.68434189e-14 932 402 -9.09494702e-13 402"></polygon>
    </defs>
    <g id="award-copy" stroke="none" stroke-width="1" fill="none" fill-rule="evenodd">
        <g id="Group-3" transform="translate(452, 142) rotate(-8) translate(-452, -142)translate(-14, -59)">
            <mask id="mask-2" fill="white">
                <use xlink:href="#path-1"></use>
            </mask>
            <g id="Clip-2"></g>
            <path d="M357.677135,173.462769 C357.46627,173.621431 357.25424,173.781259 357.03988,173.942254 C344.54642,183.340636 331.627735,193.058674 323.605545,206.422435 C322.35783,208.500205 322.08289,210.738971 322.831985,212.724577 C323.584575,214.71835 325.276155,216.222138 327.596835,216.960615 L327.822845,217.03178 C334.328205,219.107217 341.46849,216.338801 344.80039,210.447313 C348.729935,203.498857 352.17018,195.668428 354.485035,188.400315 C356.23603,182.905482 357.311325,177.849302 357.677135,173.462769 M252.86791,197.211881 C251.71922,197.211881 250.74994,197.687867 250.09288,198.13702 C248.57139,199.177655 247.428525,200.948601 247.11281,202.759213 C246.620015,205.576627 247.433185,208.739365 249.66882,212.712911 C254.926465,222.052961 263.37388,229.721228 274.775735,235.506553 C276.308875,236.284696 277.895605,237.02784 279.53243,237.738318 C278.762365,234.93257 277.82454,232.129155 276.718955,229.333906 C272.618155,218.962555 266.236285,208.986691 258.26419,200.484282 C256.99667,199.133323 255.49382,197.659868 253.698555,197.295879 C253.41313,197.237547 253.13586,197.211881 252.86791,197.211881 M317.2761,333.463913 C321.71009,333.463913 326.105635,333.77307 330.425455,334.397218 C346.327705,336.693149 360.389255,343.253116 371.090945,353.370142 C373.139015,355.30675 376.240245,360.443428 380.16746,366.948564 C387.80054,379.591347 399.33637,398.698434 407.872325,399.883731 C409.60235,400.125224 411.12151,399.606073 412.51718,398.300612 C415.524045,395.486698 417.19582,383.843718 417.7457,380.017167 L417.758515,379.92967 C418.560035,374.342673 419.019045,367.662542 419.50485,360.589257 C420.216665,350.226071 421.02401,338.480428 423.12567,327.959747 C425.12481,317.950051 428.057115,310.260784 432.04258,304.611955 C431.384355,303.908477 430.73545,303.213165 430.0947,302.527185 C415.009115,286.370509 398.556985,269.85801 377.95396,261.052277 C362.52703,254.459644 345.407355,252.50087 328.85154,250.607428 C322.160945,249.842117 315.243175,249.051141 308.511805,247.963841 C298.928515,246.416888 290.216645,244.14079 282.49852,241.171714 C284.109715,248.515658 284.60018,255.864268 283.955935,263.133547 C282.448425,280.151198 273.94276,291.72068 264.938475,303.970308 C260.10023,310.551275 255.096555,317.356235 251.24157,325.1225 C250.71266,326.186467 250.009,327.461595 249.1935,328.938551 C245.93849,334.830038 240.49095,344.691572 243.27064,348.413126 C247.72327,354.372279 268.939085,345.504714 279.135165,341.244177 C281.89738,340.089212 284.079425,339.176906 285.475095,338.711421 C295.885535,335.23136 306.68392,333.463913 317.2761,333.463913 M408.682,402 C408.32318,402 407.9597,401.974334 407.590395,401.923002 C403.312515,401.329187 398.335635,397.241311 392.377825,389.427215 C387.38347,382.877747 382.40659,374.635497 378.40831,368.013698 C374.714095,361.894717 371.524325,356.611044 369.68013,354.86693 C359.28833,345.042728 345.612395,338.669422 330.131875,336.434156 C315.809365,334.365719 300.5933,335.828675 286.12633,340.663195 C284.801725,341.106515 282.651135,342.004821 279.927365,343.143453 C274.08489,345.585212 266.08367,348.929944 258.798925,350.881718 C249.68746,353.322311 244.06983,352.918656 241.62566,349.646255 C238.050275,344.859567 243.451215,335.082031 247.39474,327.942247 C248.19859,326.486292 248.89293,325.22983 249.40087,324.206694 C253.33624,316.280601 258.39234,309.402143 263.28301,302.750012 C272.112545,290.739543 280.45278,279.395221 281.90903,262.951553 C282.57308,255.441948 281.991745,247.841345 280.176675,240.245409 C277.979485,239.336603 275.86967,238.368299 273.84723,237.34283 C262.07607,231.370845 253.33857,223.423753 247.878215,213.723214 C246.31595,210.947798 244.327295,206.756092 245.08804,202.404557 C245.50278,200.030462 246.94039,197.799863 248.93487,196.437238 C250.54257,195.338271 252.379775,194.926451 254.10747,195.278773 C256.494555,195.764092 258.27817,197.493039 259.76238,199.074991 C267.91039,207.765228 274.435555,217.966251 278.629555,228.575596 C279.96581,231.95416 281.06324,235.342058 281.921845,238.734621 C289.825205,241.905525 298.844635,244.319285 308.83917,245.932736 C315.52394,247.010703 322.417245,247.799346 329.08454,248.562323 C345.787145,250.473265 363.05827,252.448372 378.76014,259.160001 C399.731305,268.122063 416.360515,284.803723 431.596385,301.121395 C432.15675,301.721043 432.724105,302.328858 433.29845,302.943673 C433.777265,302.347524 434.268895,301.777041 434.77567,301.233391 C443.798595,291.536352 457.02251,286.777663 469.81188,282.17647 C475.875705,279.994869 481.60401,277.933432 486.859325,275.390176 C488.5544,274.570034 490.88207,273.703227 493.346045,272.786255 C498.763295,270.770316 505.503985,268.260892 508.11242,265.205485 C509.95312,263.04955 510.60086,260.886616 510.091755,258.593019 C508.076305,249.492128 488.61498,240.626897 476.98828,235.330391 C474.312275,234.111262 472.000915,233.05896 470.28254,232.183987 C466.56852,230.294044 462.44908,228.833422 458.088485,227.286469 C447.77474,223.630246 437.109165,219.848028 431.58357,209.954995 C428.784075,204.944313 427.980225,199.063325 427.271905,193.875316 C426.235055,186.292213 425.193545,178.58078 424.18582,171.123673 C422.15173,156.064797 420.04774,140.493769 417.8855,125.192234 C417.53134,122.68281 415.88403,120.70887 413.480635,119.91206 C411.09355,119.122251 408.61443,119.717233 406.84829,121.505679 C400.97669,127.454332 395.539635,134.170628 390.28199,140.666431 C382.095535,150.779957 373.630645,161.23764 363.175935,169.290895 C362.07501,170.13787 360.971755,170.977844 359.846365,171.828318 C359.33959,184.573765 352.688605,200.676776 346.588665,211.461116 C343.6284,216.694623 338.04339,219.77453 332.21606,219.77453 C330.544285,219.77453 328.855035,219.521371 327.200735,218.994054 L326.97589,218.921722 C324.04242,217.989584 321.888335,216.047143 320.909735,213.451388 C319.933465,210.8638 320.26549,207.991554 321.844065,205.361967 C330.07246,191.65405 343.743735,181.370195 355.806145,172.296137 C356.486505,171.783986 357.15405,171.282335 357.81344,170.78535 C357.83208,169.598886 357.791305,168.47192 357.688785,167.412619 C357.117935,161.504798 354.794925,155.480314 350.78616,149.505996 C343.9779,139.359804 333.7958,131.395212 320.520625,125.833881 C309.222455,121.099691 296.023005,118.201779 281.290415,117.220642 C271.087345,116.541663 260.634965,116.637326 250.527425,116.730657 C234.210435,116.879986 217.336575,117.035148 201.014925,113.936575 C187.12696,111.299988 173.76208,106.31264 161.290755,99.1145249 C148.81943,91.91641 137.811345,82.8341856 128.57173,72.1221773 C124.83907,67.7939754 121.35805,63.1589493 117.9912,58.676752 C114.64532,54.2213872 111.18527,49.6143604 107.498045,45.3386568 C94.671395,30.4676081 77.890735,18.6298007 58.96997,11.1061956 C40.049205,3.58259062 19.73044,0.667179096 0.2097,2.6749515 L-9.09494702e-13,0.627513633 C19.848105,-1.41409108 40.501225,1.5479857 59.728385,9.19292037 C78.955545,16.8390217 96.011145,28.8728232 109.05332,43.993531 C112.787145,48.3217329 116.268165,52.956759 119.63385,57.4389563 C122.97973,61.8943211 126.43978,66.5013479 130.127005,70.7758849 C139.216335,81.3140651 150.046175,90.2481273 162.31712,97.3319123 C174.588065,104.414531 187.73742,109.320215 201.39821,111.913636 C217.520645,114.974877 234.29082,114.820882 250.508785,114.671553 C260.65477,114.579389 271.145595,114.482559 281.427885,115.167371 C296.386485,116.163674 309.80612,119.112918 321.31399,123.934605 C334.96546,129.654598 345.456285,137.871182 352.49172,148.358031 C356.693875,154.618174 359.12989,160.962315 359.734525,167.214292 C359.7986,167.874605 359.84054,168.548918 359.86151,169.236064 C360.552355,168.709913 361.23854,168.186095 361.922395,167.658778 C372.186045,159.753685 380.574045,149.391666 388.684775,139.370303 C393.973875,132.836002 399.44355,126.08004 405.386215,120.059056 C407.678935,117.736293 411.027145,116.931318 414.12721,117.957953 C417.241255,118.990422 419.461745,121.651508 419.920755,124.904076 C422.08416,140.211444 424.18815,155.785972 426.223405,170.847181 C427.229965,178.304288 428.27264,186.014554 429.308325,193.595324 C429.99218,198.603672 430.76807,204.279333 433.37767,208.950525 C438.525805,218.166912 448.819745,221.817301 458.77467,225.346361 C463.00595,226.846649 467.380525,228.398268 471.213375,230.348876 C472.89214,231.204016 475.18486,232.248151 477.83873,233.456781 C490.59082,239.265438 509.861085,248.044339 512.09905,258.147365 C512.747955,261.074443 511.93129,263.898858 509.674685,266.543611 C506.720245,270.003839 499.995865,272.50743 494.06252,274.715863 C491.645145,275.615335 489.361745,276.464643 487.754045,277.243953 C482.40087,279.833874 476.623635,281.912811 470.507385,284.113077 C457.948685,288.632607 444.96243,293.304965 436.279685,302.636849 C435.74262,303.213165 435.22303,303.820979 434.718585,304.46146 C444.92282,315.344963 457.19726,328.012245 470.65767,337.361628 C487.031745,348.736283 503.013215,353.750464 519.50845,352.68883 C534.74432,351.710026 549.718065,347.17533 564.19785,342.789963 C569.68034,341.129847 575.348065,339.413733 580.961035,337.909945 C600.80914,332.59244 620.857625,330.26501 638.93959,331.177316 C660.21715,332.251783 678.979475,337.654453 694.706975,347.238328 C732.3656,370.185965 773.780185,383.765553 821.31568,388.752902 C842.869345,391.013833 860.484145,391.879474 876.75104,391.472319 C897.02437,390.966002 914.915275,388.470577 931.446625,383.841384 L932,385.823491 C915.30322,390.498182 897.24805,393.019273 876.8023,393.530257 C860.4457,393.938578 842.745855,393.070604 821.10132,390.80034 C773.255935,385.780326 731.562915,372.106241 693.637505,348.996442 C678.20708,339.593394 659.768625,334.289888 638.835905,333.23292 C620.964805,332.329948 601.136505,334.635211 581.492275,339.897885 C575.911925,341.393506 570.259345,343.104954 564.793165,344.760404 C550.20154,349.179603 535.11246,353.748131 519.640095,354.743267 C518.155885,354.838931 516.67284,354.886763 515.19562,354.886763 C499.788495,354.886763 484.790285,349.683588 469.48568,339.053244 C455.96935,329.665362 443.69957,317.040078 433.479025,306.146076 C429.785975,311.520746 427.043565,318.842524 425.14112,328.363401 C423.066255,338.754586 422.26357,350.429065 421.55525,360.730419 C421.067115,367.84337 420.605775,374.560833 419.792605,380.222494 L419.77979,380.309992 C418.697505,387.84643 417.05369,396.871489 413.921005,399.8044 C412.359905,401.263856 410.60192,402 408.682,402" id="Fill-1" fill="#EA5E29" mask="url(#mask-2)"></path>
        </g>
    </g>
</svg>