<?xml version="1.0" encoding="UTF-8"?>
<svg width="880px" height="405px" viewBox="0 0 880 405" version="1.1" xmlns="http://www.w3.org/2000/svg" xmlns:xlink="http://www.w3.org/1999/xlink">
    <title>ear copy</title>
    <defs>
        <polygon id="path-1" points="0 0 1447 0 1447 379 0 379"></polygon>
    </defs>
    <g id="ear-copy" stroke="none" stroke-width="1" fill="none" fill-rule="evenodd">
        <g id="Group-3" transform="translate(466.5, 200.5) rotate(6) translate(-466.5, -200.5)translate(-257, 11)">
            <mask id="mask-2" fill="white">
                <use xlink:href="#path-1"></use>
            </mask>
            <g id="Clip-2"></g>
            <path d="M701.654591,166.128511 C701.54064,163.677434 701.240388,161.047142 700.73213,158.212292 C699.178416,149.561112 697.152619,144.850844 695.152145,142.92836 C694.548023,142.34727 694.009017,142.05763 693.497141,142.215121 C692.90749,142.397957 692.475199,143.015252 692.111641,143.833484 C691.214503,145.860963 691.006497,149.072345 691.88193,152.611382 C693.014206,157.17864 695.966081,162.218373 701.654591,166.128511 M826.127137,171.398146 C847.341931,131.775415 856.485148,87.2595821 829.556522,46.5977689 C810.980689,18.5479606 780.016748,5.15754866 746.969131,3.03231633 C728.660993,1.85565447 707.522166,3.04498807 690.447594,10.5611419 C690.393331,10.5846752 690.335451,10.6063982 690.277572,10.6226904 C675.28125,14.8966883 661.925461,25.9862737 651.23034,39.8183864 C635.099934,60.6815062 625.012551,87.8117081 624.636641,107.621263 C624.551321,112.230157 628.242974,114.911136 633.077755,116.319509 C640.95123,118.613095 651.961074,117.505223 657.4669,114.337287 C660.038938,112.856503 662.307107,109.255918 664.378122,105.133981 C667.691747,98.5446744 670.383163,90.5850095 672.385446,86.6531487 C691.158431,49.7892379 722.995997,38.0914088 763.692806,44.0145436 C784.261878,47.0068852 802.787065,66.8653168 808.499088,86.8468453 C815.717798,112.098009 806.520319,128.864535 792.560409,143.451522 C783.091618,153.348153 771.385407,162.211132 761.312495,172.134917 C780.269973,171.403576 802.537458,171.264187 826.127137,171.398146 M625.513574,273.517913 C628.440127,272.650803 631.041105,271.796366 633.287569,270.965462 C637.24149,269.49916 640.059518,268.132422 641.522795,266.834473 C641.974981,266.432598 642.315026,266.117615 642.311437,265.751944 C642.307791,265.57635 642.163091,265.442392 641.985834,265.28309 C641.571631,264.906558 640.938569,264.568042 640.095693,264.231335 C639.287183,263.909111 638.305034,263.603179 637.1402,263.315349 C634.000216,262.535132 631.612669,262.817531 629.840097,264.021346 C627.282529,265.755565 626.045346,269.220382 625.513574,273.517913 M704.304405,170.751887 C704.033093,176.22789 702.788675,180.760754 700.893108,184.66184 C697.677156,191.27468 692.562019,196.084511 687.000122,200.588411 C679.023547,207.043759 670.088337,212.838366 665.081725,222.993863 C660.095009,233.113155 659.082111,247.528168 666.622778,271.164589 C672.72549,283.941326 680.949863,288.412642 690.545266,289.34673 C706.729935,290.923457 715.507784,279.422945 721.673803,263.414913 C727.427427,248.482169 730.864047,229.622995 735.413046,213.064647 C738.498768,201.835673 742.107219,191.654832 747.222355,184.381252 C749.508612,181.130044 752.071606,178.039949 754.817284,175.0639 C753.78449,175.112777 752.767974,175.165274 751.765928,175.217771 C742.66793,175.704728 733.5012,175.851358 724.397776,175.415088 C715.987102,175.013213 709.399646,173.264512 704.304405,170.751887 M757.45082,172.294219 C755.472051,172.381111 753.527648,172.475244 751.624846,172.578428 C742.615477,173.059954 733.539184,173.204774 724.524388,172.773935 C715.884004,172.361198 709.294738,170.464057 704.35505,167.781268 C704.313449,164.727378 703.987874,161.39652 703.331299,157.743437 C701.623842,148.234199 699.182033,143.132918 696.980788,141.020357 C695.483146,139.581209 693.990929,139.297 692.721189,139.688014 C691.527416,140.055494 690.431315,141.105439 689.696964,142.761817 C688.622568,145.18393 688.269862,149.018037 689.318936,153.246779 C690.666452,158.684767 694.32193,164.861337 701.696192,169.325411 C701.283797,188.590081 688.450737,195.7822 677.082762,205.083259 C670.057588,210.8308 663.556951,217.347696 660.438671,227.581034 C657.35114,237.712998 657.580851,251.552351 664.132133,272.053421 C664.15022,272.109539 664.171925,272.163846 664.197248,272.218154 C670.829923,286.166122 679.84291,290.961472 690.288424,291.978832 C707.741024,293.678656 717.49198,281.626018 724.139125,264.365294 C729.92169,249.358329 733.387249,230.406833 737.96157,213.767024 C740.956856,202.865704 744.416989,192.963642 749.383808,185.901861 C752.10959,182.026118 755.231487,178.383897 758.588522,174.891926 C777.730492,174.077314 800.488148,173.905341 824.696418,174.030248 C816.488324,188.908684 806.632461,203.066642 796.422084,216.029835 C785.113798,230.38692 771.128565,243.176329 761.96907,259.151777 C751.223304,277.898715 746.806344,301.057231 739.135447,321.996381 C731.614677,342.522795 720.930408,360.905873 697.559587,370.54907 C682.518047,376.754603 671.273066,377.668779 662.658004,374.821257 C652.695425,371.530225 646.353958,363.21213 641.714522,352.629415 C636.944856,341.742577 633.992981,328.466211 630.992269,315.531982 C629.141921,307.565076 624.576643,289.355781 625.267585,276.345522 C628.668029,275.357126 631.661506,274.386832 634.204604,273.443692 C638.576346,271.82352 641.656642,270.246793 643.27547,268.813076 C644.376997,267.835541 644.887064,266.841714 644.946753,265.943831 C645.010059,264.988019 644.624796,264.032208 643.582957,263.168719 C642.528458,262.296179 640.629273,261.456224 637.776879,260.748416 C633.718051,259.740107 630.648607,260.277751 628.358733,261.830945 C625.055961,264.070223 623.317755,268.599466 622.769705,274.310802 C618.222515,275.588838 613.002471,276.895837 607.210863,278.217319 C586.985453,282.07677 565.993135,281.647741 545.509074,282.507609 C541.587711,282.672342 537.666347,282.80268 533.746792,282.978274 C458.750713,286.330855 76.3833926,284.377596 1.32581575,284.153126 C0.595081933,284.151315 1.93267624e-12,284.741457 1.93267624e-12,285.470987 C1.93267624e-12,286.200517 0.587846945,286.796089 1.31677201,286.797899 C76.3924363,287.02237 458.850194,288.973819 533.864361,285.619427 C537.782107,285.443833 541.701662,285.313495 545.619408,285.148763 C566.239124,284.285274 587.368908,284.699821 607.728164,280.809596 C607.744443,280.807785 607.758913,280.804165 607.775192,280.800544 C613.244843,279.553283 618.209854,278.316883 622.592448,277.104016 C622.145687,290.302541 626.577118,308.195043 628.418422,316.131174 C632.072091,331.880341 635.689585,348.116464 642.470578,360.076779 C647.126293,368.284448 653.266989,374.502654 661.829598,377.332073 C670.893229,380.328035 682.742331,379.522474 698.567059,372.992906 C722.715641,363.029295 733.846671,344.115814 741.617048,322.906936 C749.235491,302.107175 753.585527,279.089859 764.260753,260.467828 C773.355133,244.604616 787.268015,231.923821 798.496717,217.6663 C809.085122,204.225201 819.264751,189.511497 827.659146,174.04654 C886.231802,174.401349 952.672508,176.390812 996.630488,175.150792 C1070.21936,173.072626 1390.29705,177.875217 1445.75143,174.70366 C1446.48035,174.662025 1447.03745,174.037489 1446.99803,173.307958 C1446.95424,172.580238 1446.32842,172.022682 1445.6013,172.064317 C1390.15597,175.234063 1070.13254,170.429662 996.556329,172.507828 C952.970951,173.736987 887.28811,171.79459 829.066351,171.414438 C850.216031,131.263115 858.983028,86.2422222 831.759576,45.136898 C812.715278,16.3810925 781.016985,2.57251308 747.137344,0.394783524 C728.458413,-0.807221816 706.899957,0.456331991 689.465444,8.10463404 C673.998848,12.5397441 660.176403,23.9262104 649.141237,38.2000238 C632.641846,59.5392391 622.379016,87.3084588 621.99737,107.572386 C621.887036,113.392337 626.233456,117.079814 632.339786,118.859289 C640.878881,121.344761 652.812994,120.066725 658.783668,116.629062 C661.693942,114.954582 664.394401,110.986516 666.738537,106.323314 C670.050353,99.7376285 672.73996,91.7833944 674.738626,87.855154 C692.940047,52.1154079 723.85877,40.8882436 763.312969,46.6303534 C782.93064,49.4851161 800.511661,68.5180742 805.959607,87.5727552 C812.854551,111.694323 803.986264,127.687873 790.652181,141.62317 C780.559372,152.169681 767.95964,161.568494 757.45082,172.294219" id="Fill-1" fill="#00FC87" mask="url(#mask-2)"></path>
        </g>
    </g>
</svg>