<?xml version="1.0" encoding="UTF-8"?>
<svg width="870px" height="340px" viewBox="0 0 870 340" version="1.1" xmlns="http://www.w3.org/2000/svg" xmlns:xlink="http://www.w3.org/1999/xlink">
    <title>heart</title>
    <defs>
        <polygon id="path-1" points="0 0 848 0 848 274 0 274"></polygon>
    </defs>
    <g id="heart" stroke="none" stroke-width="1" fill="none" fill-rule="evenodd">
        <path d="M82.9923673,214.684175 C83.0046776,214.684175 30.3276712,221.98829 -0.456547219,234.396435" id="Path-3" stroke="#B0D236" stroke-width="2" stroke-linecap="round"></path>
        <path d="M273.800663,430.343506 C273.812974,430.343506 216.654419,150.112061 0.543452781,215.396435" id="Path-3-Copy" stroke="#B0D236" stroke-width="2" stroke-linecap="round"></path>
        <g id="Group-3" transform="translate(504, 152) rotate(-2) translate(-504, -152)translate(80, 15)">
            <mask id="mask-2" fill="white">
                <use xlink:href="#path-1"></use>
            </mask>
            <g id="Clip-2"></g>
            <path d="M405.322377,54.6718093 C405.307577,54.7122817 405.292333,54.7542313 405.277534,54.7948514 C402.657854,62.0079532 400.975581,69.7328687 400.277779,77.7552712 C399.131549,90.9305224 400.8782,101.391019 404.836061,105.05466 C406.244245,106.358049 407.894106,106.834856 409.880215,106.511076 C411.924782,106.177844 414.640511,104.566037 415.968777,98.7789231 C416.847282,94.9513248 416.950287,89.9673082 416.251598,85.1047089 C414.925404,75.8759623 412.306316,67.4794113 408.466851,60.1484373 C407.488893,58.2812405 406.438564,56.4534822 405.322377,54.6718093 M337.65039,15.1466466 C312.15139,15.1466466 285.791941,29.6015059 273.658624,51.6588294 C242.758652,107.831895 282.039054,176.367514 334.686175,212.333763 C344.842411,219.272125 379.79215,240.77081 428.806852,245.773881 C432.600586,243.761191 435.947223,241.858839 438.793338,240.167417 C489.764253,209.875137 530.049697,156.254197 541.425719,103.561316 C548.697954,69.875113 540.762252,27.5428775 506.639516,8.90665555 C491.050932,0.392970931 472.402823,-0.50126285 454.129144,6.38761642 C432.543311,14.5256756 414.343335,32.1079897 406.112232,52.6114084 C407.52826,54.7939651 408.84069,57.0361965 410.040642,59.3273198 C413.973789,66.8368747 416.654739,75.4250049 418.009644,84.8530118 C418.738081,89.9228476 418.625308,95.1430518 417.699888,99.1747847 C416.474184,104.515224 413.869155,107.656859 410.166439,108.260253 C407.639109,108.67192 405.439442,108.03086 403.628265,106.354209 C401.228211,104.132509 399.590041,100.148634 398.758895,94.5133659 C398.050585,89.7091119 397.963859,83.8612897 398.508337,77.6019487 C399.219755,69.4256327 400.935474,61.5491672 403.607989,54.1907192 C403.774633,53.7314901 403.947048,53.2724088 404.124052,52.8149522 C391.960839,34.5073841 372.628248,21.1859004 350.979812,16.5334919 C346.619993,15.59657 342.146661,15.1466466 337.65039,15.1466466 M329.266111,274 C324.317267,274 319.430582,273.794388 314.548188,273.383313 C303.046222,272.414781 291.139931,270.283036 278.149123,266.866366 C252.372039,260.086939 220.955857,247.903115 176.284694,227.36144 C104.187622,194.20832 53.3900098,182.169842 0.951564275,185.804679 C0.460512996,185.841902 0.0381319379,185.470265 0.00191625984,184.982085 C-0.0299462985,184.493757 0.339304136,184.070421 0.828431464,184.036596 C26.1829866,182.278261 49.9997136,184.088737 75.7807937,189.733902 C105.224483,196.180982 138.342769,207.962593 177.027783,225.751701 C261.417121,264.55737 302.832664,275.632043 347.466975,271.327491 C379.357041,268.252325 407.360432,256.824478 425.989745,247.245069 C410.281728,245.428536 394.596947,241.781587 379.177374,236.351635 C357.892269,228.855965 342.688919,219.94893 333.683057,213.796383 C319.961888,204.422585 307.535686,193.266967 296.749873,180.638832 C285.694412,167.695042 276.977586,153.909603 270.841813,139.665525 C264.340045,124.572413 261.008207,109.5406 260.938945,94.9881045 C260.864059,79.2722486 264.619758,64.4073476 272.101852,50.8058065 C279.392587,37.5518262 291.782974,26.6131934 306.990764,20.0046669 C314.178198,16.8814956 321.67598,14.8380813 329.276323,13.9311445 C336.969163,13.0131295 344.397091,13.3058899 351.353503,14.8007108 C363.585682,17.4293505 375.406284,22.8674262 385.537361,30.5267587 C393.06341,36.2166793 399.64924,43.1297829 404.926043,50.832542 C408.941327,41.3179773 415.172853,32.2449165 423.097604,24.4127638 C431.895236,15.7179873 442.408736,8.91167767 453.501789,4.72957641 C462.514163,1.33166529 471.59728,-0.247940925 480.495549,0.0315255952 C490.068089,0.333296262 499.151058,2.79620575 507.491974,7.35171683 C523.221154,15.9422104 534.770923,30.2474399 540.892637,48.7205904 C546.433169,65.4398375 547.239008,85.0485793 543.161714,103.934726 C537.365,130.785373 524.10336,158.218586 504.810579,183.268654 C495.709407,195.085715 485.459933,206.126415 474.3469,216.084109 C463.313638,225.969868 451.65746,234.585176 439.701886,241.690302 C437.184767,243.186305 434.610818,244.649368 431.993062,246.07388 C435.297964,246.358811 438.660289,246.567377 442.08492,246.690863 C493.183557,248.532358 549.342774,228.284181 600.218084,189.67275 C618.531721,175.77387 639.564344,155.663063 661.831996,134.371318 C683.083505,114.051059 705.059012,93.0387812 727.334655,74.7603118 C752.706673,53.9413854 774.318257,40.2159161 793.404139,32.7995659 C812.522284,25.3708082 830.077589,21.4099758 847.073765,20.6910733 C847.562152,20.6733482 847.977725,21.0500076 847.999253,21.539074 C848.019164,22.0281404 847.638814,22.4414318 847.148947,22.4621112 C830.351086,23.1725942 812.981664,27.0942835 794.048514,34.4512544 C751.681652,50.91393 704.599928,95.9322641 663.060512,135.651222 C640.755418,156.97886 619.687127,177.12364 601.293128,191.08382 C575.528475,210.637761 548.670575,225.500742 521.465476,235.260061 C496.796291,244.109785 472.353688,248.581841 448.710561,248.582284 C446.472119,248.582431 444.24448,248.542402 442.020838,248.462196 C437.739161,248.307839 433.452008,248.015817 429.166335,247.587607 C419.396072,252.737945 409.078075,257.335553 398.810989,261.096239 C381.449263,267.455727 364.232129,271.491596 347.637763,273.091734 C341.355326,273.697491 335.265284,274 329.266111,274" id="Fill-1" fill="#B0D236" mask="url(#mask-2)"></path>
        </g>
        <path d="M870.599731,81.2888794 C870.612046,81.2888794 691.696777,276.766846 386.982056,258.785583" id="Path-3-Copy" stroke="#B0D236" stroke-width="2" stroke-linecap="round"></path>
    </g>
</svg>