<?xml version="1.0" encoding="UTF-8"?>
<svg width="785px" height="444px" viewBox="0 0 785 444" version="1.1" xmlns="http://www.w3.org/2000/svg" xmlns:xlink="http://www.w3.org/1999/xlink">
    <title>lightbulb</title>
    <g id="lightbulb" stroke="none" stroke-width="1" fill="none" fill-rule="evenodd">
        <g id="Group-3-Copy" transform="translate(-60.0379, -38)" fill="#61FFF8" stroke="#61FFF8">
            <path d="M302.673431,216.847531 C295.166572,219.331758 288.883433,223.585831 284.503422,229.149839 C282.457957,231.748179 280.822657,234.614668 279.498009,237.626862 C290.312786,236.473477 301.045373,234.580245 311.615626,231.9566 C317.53568,230.486968 323.752531,228.683644 329.10859,225.466016 C331.630663,223.950959 332.93122,222.403681 333.084421,220.735689 C333.438216,216.89107 328.041062,215.169636 325.13764,214.796649 C322.894888,214.508381 320.642688,214.36519 318.403085,214.36519 C312.989084,214.36519 307.647195,215.201544 302.673431,216.847531 Z M195.410688,216.218435 C194.089546,218.497872 194.809957,221.447985 196.109906,223.36062 C197.608384,225.565081 199.919058,227.053056 202.1928,228.332584 C213.970099,234.959915 228.377839,238.412518 247.300182,239.108397 C245.238372,232.510708 242.448203,227.443794 238.80283,223.663383 C234.935553,219.653126 229.711759,216.728851 223.27653,214.971877 C218.09185,213.556343 212.063965,212.85032 204.848641,212.813069 C204.790827,212.812593 204.73317,212.812593 204.676135,212.812593 C198.145069,212.812593 196.260127,214.75281 195.410688,216.218435 Z M249.185622,240.757736 C253.077684,254.506624 252.8759,268.931462 252.680702,282.881511 C252.512783,294.880708 252.339221,307.28863 248.320005,318.926738 C246.618246,323.854079 244.218475,328.614931 241.897568,333.218822 C238.307476,340.3405 234.595404,347.70457 233.550894,355.638699 C233.264759,357.811015 233.158771,361.710844 235.661864,363.420865 C236.909883,364.273611 238.633434,364.415267 240.018171,364.529435 C263.874458,366.493406 287.636517,366.764066 309.761257,366.764066 C310.281474,366.764066 310.788364,366.764066 311.28224,366.760318 C304.530239,364.364352 298.493183,361.20763 293.318295,357.365276 C287.195948,352.819484 282.433251,347.410951 279.162532,341.290078 C272.523417,328.865288 272.019192,314.80154 271.531744,301.200867 C271.022031,286.986405 271.77194,272.662616 273.760461,258.627605 C274.643011,252.396937 275.893852,245.629164 278.358845,239.330558 C269.361351,240.20798 260.312901,240.575629 251.260531,240.427414 C250.526928,240.415544 249.798343,240.39977 249.077596,240.380248 C249.113814,240.505661 249.149718,240.63123 249.185622,240.757736 Z M229.186879,390.74361 C238.184354,395.063963 249.898142,397.641709 264.002342,398.40544 C265.597675,398.491807 267.416232,398.61673 269.341384,398.748748 C277.855416,399.333268 289.515749,400.133704 299.97249,398.868891 C305.643077,398.183045 310.432836,396.941519 314.208681,395.178862 C318.551993,393.151243 321.711306,390.361745 323.598837,386.887787 C324.747407,384.772568 325.12786,382.53628 324.616357,380.906258 C324.272899,379.812019 323.534409,378.967474 322.421423,378.395601 C320.705699,377.519439 318.694643,377.201732 316.894113,377.518976 C293.503375,381.642536 278.821519,383.230918 266.217342,382.99603 C253.829335,382.766849 243.573402,380.80123 228.15478,377.591771 C223.845172,376.694789 219.076888,377.845474 216.007554,380.523622 C215.870077,380.643456 215.738086,380.765603 215.610641,380.890835 C219.160754,384.807886 223.728073,388.122527 229.186879,390.74361 Z M231.562364,421.153939 C237.303542,424.859787 244.402782,425.990325 251.219275,426.659903 C254.676841,426.999542 270.876029,427.398147 286.871665,426.28316 C307.472475,424.847317 320.274002,421.528527 323.891995,416.685366 C325.095745,415.074007 325.257897,413.321466 324.387703,411.327821 C323.704752,409.76342 322.379937,409.058739 319.815147,408.896464 C317.193901,408.730802 313.537017,409.163741 308.475496,409.763112 C293.663223,411.517655 268.871243,414.454005 227.278826,407.939903 C224.981571,407.579787 222.657499,407.92697 220.76531,408.892307 C223.518441,413.722381 226.87674,418.129523 231.562364,421.153939 Z M221.694846,455.878713 C204.287971,450.381732 186.559542,440.822104 165.902117,425.794094 C151.892266,415.602002 136.537737,409.257828 120.264819,406.937857 C107.239638,405.080629 93.5954228,405.782168 79.7110981,409.022002 C56.0376045,414.546333 39.6641716,425.691418 39.5014409,425.80347 C39.2170919,425.999133 38.8276949,425.9274 38.6319803,425.642971 C38.4359531,425.358698 38.5077047,424.969562 38.7920536,424.773744 C38.9563476,424.660597 55.4915733,413.398615 79.3834481,407.814586 C93.424876,404.532869 107.229633,403.820233 120.414731,405.696371 C136.90181,408.042285 152.453617,414.46413 166.637923,424.783277 C187.182953,439.729396 204.797266,449.231357 222.07158,454.686455 C237.72484,459.629894 261.135244,463.363259 275.596865,457.616543 C280.494106,455.670549 284.000243,451.911397 284.321953,448.262423 C284.574568,445.397504 282.898645,442.763879 279.475984,440.646445 C273.170285,436.745548 264.438006,437.961717 255.993359,439.137878 C250.580569,439.891615 245.468385,440.604094 240.981956,440.041174 C234.691733,439.252431 228.384158,436.782899 223.677003,433.2652 C218.245298,429.206148 215.107142,424.024539 214.601755,418.280323 C214.308964,414.952035 215.145285,410.644185 218.337684,408.390789 C217.06335,406.031122 215.932833,403.628478 214.881101,401.310538 C211.909428,394.760231 209.483943,386.097493 213.85063,380.622078 C210.14534,376.216241 207.522264,371.061669 205.992345,365.164299 C203.938279,357.24592 202.922189,349.375832 201.939396,341.765011 C200.253624,328.708938 198.661489,316.376909 192.279348,303.734352 C186.273474,291.837561 178.073783,280.97753 170.143903,270.475067 C163.410977,261.557748 156.448883,252.336935 150.818181,242.481157 C140.8111,224.964706 134.903395,204.693981 133.733485,183.86065 C132.56373,163.027318 136.165223,142.223055 144.148409,123.696881 C149.348445,111.629902 156.259422,100.499819 164.689687,90.6160673 C172.739779,81.1778687 182.158622,72.8881694 192.683909,65.9773258 C213.047449,52.606818 236.874294,44.7651726 261.588733,43.3000506 C285.260663,41.8971279 308.528972,46.4851867 328.877818,56.5692892 C339.537229,61.8516986 349.328743,68.6090756 357.981141,76.6540408 C367.058109,85.0936123 374.915768,94.9886164 381.335895,106.064001 C389.348157,119.885532 394.530529,134.944954 396.739196,150.823907 C398.778255,165.483254 398.308821,180.980415 395.343557,196.884529 C390.040036,225.330713 376.840712,254.870697 357.172021,282.310908 C357.158421,282.329818 357.143883,282.347947 357.128251,282.36545 C357.056655,282.44484 349.885247,290.441827 342.442465,302.635862 C338.075935,309.78972 334.471629,316.967333 331.729905,323.969132 C328.308651,332.706103 326.228793,341.19084 325.548013,349.187671 C324.821743,357.720541 323.108146,362.663824 319.991875,365.215871 C318.976567,366.047591 317.858086,366.587225 316.646594,366.937604 C328.764485,370.264486 342.030089,370.931331 352.909601,368.675434 C368.268038,365.490767 379.358427,362.715865 388.269538,360.486223 C404.944202,356.313868 414.129188,354.015619 429.543745,354.475706 C439.572555,354.774982 449.328896,356.193845 458.541707,358.692757 C465.915239,360.692981 472.959401,363.38568 479.478166,366.696308 C490.596381,372.342537 496.249594,377.750751 496.484702,377.978138 C496.73294,378.218184 496.739506,378.613728 496.499552,378.8619 C496.259599,379.110072 495.864261,379.117105 495.615397,378.876903 C495.558965,378.822361 489.828686,373.347259 478.86054,367.785109 C472.420873,364.519176 465.461594,361.862734 458.176227,359.889078 C449.069402,357.422203 439.423424,356.021156 429.50654,355.725319 C414.265344,355.270388 405.139448,357.553791 388.573114,361.698953 C379.650905,363.931564 368.547072,366.709905 353.163623,369.899729 C341.367442,372.345819 326.827036,371.417986 313.891895,367.437855 C312.378077,367.585696 310.756085,367.585696 309.041237,367.585696 C286.955346,367.585696 263.232611,367.314394 239.401858,365.34527 C237.873814,365.219153 235.972163,365.061935 234.454124,364.021269 C231.560768,362.037299 231.422893,358.042477 231.816823,355.040345 C232.88575,346.89161 236.635122,339.426911 240.261001,332.207884 C242.556583,327.637953 244.93017,322.912212 246.599528,318.060979 C250.541645,306.60474 250.713442,294.290683 250.879456,282.382172 C251.072825,268.512663 251.272761,254.171189 247.441476,240.588297 C247.369724,240.333874 247.296878,240.081639 247.223094,239.831435 C227.825152,239.174279 213.063082,235.718623 200.981457,229.036885 C198.567227,227.701788 196.105788,226.137272 194.456126,223.752131 C192.925582,221.539211 192.100204,218.087462 193.706095,215.364601 C195.82816,211.766574 200.745255,211.374937 204.257332,211.391972 C211.604132,211.429166 217.754761,212.139301 223.06094,213.563165 C229.735089,215.353974 235.166638,218.348762 239.20458,222.464074 C243.081042,226.414825 246.019262,231.708486 248.160086,238.610109 C249.009068,238.634801 249.867586,238.654336 250.734546,238.668558 C259.929692,238.819524 269.125777,238.431794 278.262929,237.512088 C279.664195,234.191301 281.425627,231.02445 283.674625,228.163125 C288.175279,222.437351 294.617291,218.064489 302.304091,215.51713 C309.461742,213.144961 317.365517,212.421699 325.160179,213.424545 C327.441223,213.718195 329.660208,214.48334 331.247966,215.524006 C333.322353,216.883483 334.320935,218.667728 334.135537,220.683893 C333.9442,222.766632 332.456644,224.618077 329.587674,226.34403 C324.128613,229.628404 317.849488,231.455001 311.877067,232.939657 C301.10401,235.617666 290.159938,237.53428 279.134109,238.679654 C276.562307,245.037424 275.282033,251.952643 274.385372,258.304943 C272.412907,272.276503 271.669129,286.535617 272.174673,300.686116 C272.655831,314.15383 273.153246,328.079912 279.637152,340.257694 C282.810792,346.218513 287.439317,351.490764 293.394387,355.928326 C298.833752,359.981596 305.25466,363.259874 312.478748,365.671895 C312.991639,365.843178 313.507657,366.009459 314.026176,366.170896 C316.025216,365.951479 317.74444,365.440445 319.199481,364.248812 C321.994667,361.959471 323.616034,357.140119 324.30213,349.081713 C324.993384,340.960327 327.10263,332.353068 330.571093,323.498886 C333.34158,316.426449 336.981215,309.180386 341.388702,301.961827 C348.674537,290.029718 355.70932,282.077426 356.175471,281.554827 C375.726139,254.270896 388.845895,224.912508 394.114245,196.655423 C397.054653,180.883834 397.521273,165.521855 395.500504,150.996127 C393.314347,135.278299 388.184655,120.371874 380.253837,106.690839 C373.895927,95.722662 366.11549,85.9248639 357.129345,77.5693709 C348.565737,69.606765 338.873644,62.9181511 328.322251,57.6893456 C308.168494,47.701824 285.118724,43.1576798 261.662673,44.5481001 C237.166459,46.0004071 213.55143,53.7717267 193.370629,67.0222117 C182.943981,73.8681993 173.614554,82.0792899 165.641373,91.4273151 C157.292238,101.216049 150.447386,112.239549 145.29706,124.191506 C137.390002,142.540615 133.823213,163.149685 134.982181,183.790636 C136.141149,204.431431 141.992734,224.511963 151.904147,241.861039 C157.495144,251.647429 164.432695,260.835893 171.142016,269.721799 C179.105193,280.268333 187.339274,291.173998 193.395641,303.170963 C199.874388,316.004651 201.554688,329.018997 203.179651,341.604825 C204.157442,349.177513 205.16853,357.008062 207.202899,364.850489 C208.661223,370.471869 211.180345,375.456253 214.698205,379.684869 C214.822012,379.563752 214.950195,379.444198 215.082443,379.326988 C218.429757,376.359393 223.611817,375.080244 228.284425,376.068713 C243.58768,379.305734 253.762963,381.287673 266.005443,381.518029 C278.488188,381.753543 293.057514,380.150426 316.297059,375.987291 C318.358315,375.618471 320.654366,375.984322 322.596349,376.991857 C322.601038,376.994358 322.605259,376.996546 322.608073,376.997952 C324.024815,377.737468 324.968372,378.842365 325.412951,380.281544 C326.287101,383.112082 324.930386,386.133281 324.306507,387.300846 C315.783386,403.239967 286.504045,401.198017 269.010412,399.977628 C267.09516,399.844009 265.286207,399.717892 263.704546,399.630844 C240.742784,398.367479 224.343089,392.31633 214.688669,381.585386 C210.915849,386.598525 213.23613,394.657556 216.02006,400.79419 C217.077107,403.12432 218.180737,405.473828 219.39942,407.747698 C221.526331,406.636393 224.127991,406.233817 226.689945,406.6428 C267.976501,413.227176 292.581046,410.259894 307.281682,408.486901 C317.511521,407.253541 322.646372,406.634205 324.442506,410.824063 C325.484702,413.254994 325.271011,415.49917 323.807372,417.494236 C321.669049,420.409008 316.757426,422.791805 309.209127,424.576206 C303.114618,426.017105 295.300728,427.082932 285.984901,427.744151 C269.966162,428.881242 253.708563,428.471008 250.232753,428.123599 C243.279101,427.427841 236.024218,426.245273 230.075713,422.335156 C225.258508,419.169242 221.754873,414.475538 218.946087,409.493654 C216.279398,411.465904 215.589082,415.233651 215.847638,418.170771 C216.867323,429.760784 229.34194,437.321908 241.137652,438.800782 C245.459475,439.342604 250.492403,438.641533 255.82078,437.899517 C264.485372,436.692726 273.444786,435.445145 280.133942,439.583431 C282.819702,441.24484 285.942694,444.118198 285.567835,448.372131 C285.200011,452.544486 281.467521,456.629168 276.058795,458.778326 C270.719319,460.900135 264.204462,461.762955 257.314902,461.762955 C245.149802,461.762955 231.813384,459.074007 221.694846,455.878713 Z" id="Fill-1" transform="translate(267.5984, 252.4079) rotate(-12) translate(-267.5984, -252.4079)"></path>
        </g>
        <path d="M425.757486,289.881517 C426.119379,287.077267 751.875732,292.493852 785.484895,457.455032" id="Path-4" stroke="#61FFF8" stroke-width="2"></path>
        <path d="M299.791358,316.397849 C300.195523,313.214709 762.795285,183.541646 702.235183,444.468784" id="Path-4-Copy-2" stroke="#61FFF8" stroke-width="2"></path>
        <path d="M84.5300032,509.408661 C2.86710567,465.703054 83.5725224,334.33111 191.594923,376.761722" id="Path-4-Copy-3" stroke="#61FFF8" stroke-width="2"></path>
        <path d="M70.176514,539 C67.4144758,538.395077 -31.0106366,497.616691 20.1657358,430.996652" id="Path-4-Copy" stroke="#61FFF8" stroke-width="2" stroke-linecap="round"></path>
    </g>
</svg>