<?xml version="1.0" encoding="UTF-8"?>
<svg width="700px" height="430px" viewBox="0 0 700 430" version="1.1" xmlns="http://www.w3.org/2000/svg" xmlns:xlink="http://www.w3.org/1999/xlink">
    <title>lightbulb copy</title>
    <g id="lightbulb-copy" stroke="none" stroke-width="1" fill="none" fill-rule="evenodd">
        <g id="Group-3-Copy" transform="translate(-80.0379, -14.4808)" fill="#61FFF8" stroke="#61FFF8">
            <path d="M303.751761,206.587907 C296.244902,209.072134 289.961763,213.326206 285.581752,218.890215 C283.536287,221.488555 281.900986,224.355044 280.576339,227.367238 C291.391116,226.213852 302.123703,224.320621 312.693956,221.696975 C318.61401,220.227344 324.830861,218.42402 330.18692,215.206391 C332.708993,213.691335 334.00955,212.144057 334.162751,210.476064 C334.516546,206.631446 329.119392,204.910012 326.21597,204.537024 C323.973217,204.248757 321.721018,204.105566 319.481415,204.105566 C314.067413,204.105566 308.725525,204.94192 303.751761,206.587907 Z M196.489018,205.95881 C195.167876,208.238248 195.888287,211.188361 197.188236,213.100996 C198.686714,215.305456 200.997388,216.793432 203.27113,218.07296 C215.048429,224.700291 229.456169,228.152894 248.378512,228.848772 C246.316702,222.251084 243.526533,217.18417 239.88116,213.403759 C236.013883,209.393502 230.790089,206.469227 224.354859,204.712253 C219.17018,203.296719 213.142294,202.590695 205.926971,202.553445 C205.869157,202.552969 205.811499,202.552969 205.754465,202.552969 C199.223399,202.552969 197.338457,204.493186 196.489018,205.95881 Z M250.263952,230.498112 C254.156014,244.247 253.95423,258.671838 253.759032,272.621887 C253.591113,284.621084 253.417551,297.029006 249.398335,308.667113 C247.696576,313.594454 245.296805,318.355307 242.975898,322.959198 C239.385806,330.080876 235.673734,337.444946 234.629223,345.379075 C234.343089,347.551391 234.237101,351.45122 236.740194,353.161241 C237.988213,354.013987 239.711764,354.155643 241.096501,354.269811 C264.952788,356.233781 288.714847,356.504442 310.839587,356.504442 C311.359803,356.504442 311.866694,356.504442 312.36057,356.500694 C305.608569,354.104728 299.571513,350.948006 294.396625,347.105651 C288.274278,342.55986 283.511581,337.151326 280.240862,331.030454 C273.601747,318.605664 273.097522,304.541916 272.610074,290.941243 C272.100361,276.726781 272.85027,262.402992 274.838791,248.367981 C275.721341,242.137313 276.972181,235.36954 279.437175,229.070934 C270.439681,229.948356 261.391231,230.316005 252.338861,230.16779 C251.605258,230.15592 250.876672,230.140146 250.155926,230.120623 C250.192144,230.246036 250.228048,230.371605 250.263952,230.498112 Z M230.265209,380.483986 C239.262684,384.804339 250.976472,387.382085 265.080672,388.145815 C266.676005,388.232182 268.494562,388.357106 270.419714,388.489124 C278.933746,389.073643 290.594079,389.87408 301.05082,388.609267 C306.721407,387.92342 311.511166,386.681895 315.287011,384.919238 C319.630323,382.891619 322.789636,380.10212 324.677167,376.628163 C325.825737,374.512944 326.20619,372.276656 325.694687,370.646634 C325.351229,369.552395 324.612739,368.70785 323.499753,368.135977 C321.784029,367.259815 319.772973,366.942108 317.972443,367.259352 C294.581705,371.382912 279.899849,372.971293 267.295672,372.736406 C254.907665,372.507225 244.651732,370.541605 229.23311,367.332147 C224.923502,366.435165 220.155218,367.58585 217.085884,370.263997 C216.948407,370.383831 216.816416,370.505979 216.688971,370.631211 C220.239084,374.548262 224.806403,377.862902 230.265209,380.483986 Z M232.640694,410.894315 C238.381872,414.600163 245.481112,415.730701 252.297605,416.400279 C255.755171,416.739917 271.954359,417.138523 287.949995,416.023535 C308.550805,414.587692 321.352332,411.268903 324.970325,406.425742 C326.174075,404.814383 326.336227,403.061842 325.466033,401.068197 C324.783082,399.503796 323.458267,398.799115 320.893477,398.63684 C318.272231,398.471178 314.615347,398.904117 309.553826,399.503488 C294.741553,401.258031 269.949573,404.194381 228.357156,397.680278 C226.059901,397.320163 223.735829,397.667346 221.84364,398.632683 C224.596771,403.462757 227.95507,407.869899 232.640694,410.894315 Z M222.773175,445.619089 C205.366301,440.122107 187.637872,430.562479 166.980447,415.534469 C152.970596,405.342378 137.616067,398.998204 121.343149,396.678232 C108.317968,394.821005 94.6737528,395.522544 80.789428,398.762378 C57.1159345,404.286708 40.7425016,415.431794 40.5797708,415.543846 C40.2954219,415.739508 39.9060249,415.667776 39.7103103,415.383347 C39.5142831,415.099074 39.5860347,414.709938 39.8703836,414.514119 C40.0346775,414.400973 56.5699033,403.13899 80.461778,397.554961 C94.5032059,394.273244 108.307963,393.560609 121.493061,395.436747 C137.98014,397.782661 153.531947,404.204505 167.716253,414.523652 C188.261283,429.469772 205.875596,438.971733 223.14991,444.426831 C238.80317,449.37027 262.213574,453.103635 276.675195,447.356919 C281.572436,445.410924 285.078573,441.651773 285.400282,438.002799 C285.652898,435.13788 283.976975,432.504254 280.554314,430.386821 C274.248615,426.485924 265.516336,427.702093 257.071689,428.878253 C251.658899,429.63199 246.546715,430.344469 242.060286,429.78155 C235.770063,428.992806 229.462488,426.523275 224.755333,423.005576 C219.323628,418.946524 216.185472,413.764915 215.680085,408.020699 C215.387294,404.69241 216.223615,400.384561 219.416014,398.131164 C218.14168,395.771498 217.011163,393.368854 215.959431,391.050914 C212.987758,384.500607 210.562273,375.837868 214.92896,370.362454 C211.22367,365.956617 208.600594,360.802044 207.070675,354.904674 C205.016609,346.986296 204.000519,339.116207 203.017726,331.505387 C201.331954,318.449314 199.739819,306.117284 193.357678,293.474727 C187.351804,281.577937 179.152113,270.717906 171.222233,260.215443 C164.489307,251.298124 157.527213,242.077311 151.896511,232.221533 C141.88943,214.705081 135.981725,194.434357 134.811815,173.601025 C133.64206,152.767694 137.243553,131.963431 145.226739,113.437256 C150.426775,101.370277 157.337752,90.240195 165.768017,80.356443 C173.818109,70.9182444 183.236952,62.6285452 193.762239,55.7177016 C214.125779,42.3471937 237.952624,34.5055483 262.667063,33.0404263 C286.338993,31.6375037 309.607301,36.2255624 329.956148,46.3096649 C340.615559,51.5920743 350.407073,58.3494513 359.059471,66.3944166 C368.136439,74.8339881 375.994098,84.7289921 382.414225,95.8043766 C390.426486,109.625908 395.608859,124.68533 397.817526,140.564283 C399.856585,155.223629 399.387151,170.720791 396.421887,186.624905 C391.118366,215.071088 377.919042,244.611073 358.250351,272.051284 C358.236751,272.070194 358.222213,272.088322 358.206581,272.105826 C358.134985,272.185216 350.963577,280.182203 343.520795,292.376237 C339.154265,299.530096 335.549959,306.707709 332.808235,313.709508 C329.386981,322.446479 327.307123,330.931215 326.626342,338.928047 C325.900073,347.460917 324.186476,352.404199 321.070205,354.956247 C320.054897,355.787967 318.936416,356.327601 317.724924,356.67798 C329.842815,360.004862 343.108419,360.671707 353.987931,358.41581 C369.346368,355.231143 369.625402,356.45028 354.241953,359.640105 C342.445772,362.086194 327.905365,361.158362 314.970225,357.178231 C313.456407,357.326072 311.834415,357.326072 310.119567,357.326072 C288.033675,357.326072 264.310941,357.05477 240.480188,355.085646 C238.952144,354.959529 237.050493,354.802311 235.532454,353.761645 C232.639098,351.777674 232.501223,347.782853 232.895153,344.780721 C233.96408,336.631986 237.713452,329.167287 241.339331,321.94826 C243.634913,317.378329 246.0085,312.652588 247.677858,307.801354 C251.619975,296.345116 251.791772,284.031059 251.957786,272.122548 C252.151155,258.253039 252.351091,243.911565 248.519806,230.328673 C248.448054,230.07425 248.375208,229.822015 248.301424,229.571811 C228.903482,228.914655 214.141412,225.458998 202.059787,218.777261 C199.645557,217.442164 197.184118,215.877648 195.534456,213.492507 C194.003912,211.279587 193.178534,207.827838 194.784425,205.104977 C196.90649,201.50695 201.823585,201.115313 205.335662,201.132348 C212.682462,201.169542 218.833091,201.879677 224.13927,203.303541 C230.813419,205.09435 236.244968,208.089137 240.28291,212.20445 C244.159372,216.1552 247.097592,221.448862 249.238416,228.350485 C250.087398,228.375177 250.945916,228.394712 251.812876,228.408934 C261.008022,228.5599 270.204107,228.17217 279.341259,227.252464 C280.742525,223.931677 282.503957,220.764826 284.752955,217.903501 C289.253609,212.177726 295.69562,207.804865 303.382421,205.257506 C310.540072,202.885337 318.443847,202.162074 326.238509,203.164921 C328.519553,203.458571 330.738537,204.223716 332.326296,205.264382 C334.400683,206.623859 335.399265,208.408104 335.213867,210.424268 C335.02253,212.507008 333.534974,214.358453 330.666004,216.084406 C325.206943,219.368779 318.927818,221.195376 312.955397,222.680033 C302.18234,225.358042 291.238267,227.274656 280.212439,228.42003 C277.640637,234.777799 276.360363,241.693019 275.463702,248.045319 C273.491237,262.016878 272.747459,276.275993 273.253003,290.426492 C273.734161,303.894206 274.231576,317.820288 280.715482,329.99807 C283.889122,335.958889 288.517647,341.23114 294.472717,345.668702 C299.912082,349.721971 306.33299,353.00025 313.557078,355.412271 C314.069969,355.583553 314.585987,355.749835 315.104506,355.911272 C317.103546,355.691855 318.82277,355.180821 320.277811,353.989188 C323.072997,351.699847 324.694364,346.880494 325.38046,338.822089 C326.071714,330.700703 328.18096,322.093443 331.649423,313.239262 C334.41991,306.166825 338.059545,298.920762 342.467032,291.702203 C349.752867,279.770094 356.78765,271.817802 357.253801,271.295203 C376.804469,244.011272 389.924225,214.652884 395.192575,186.395799 C398.132983,170.62421 398.599603,155.26223 396.578834,140.736503 C394.392677,125.018675 389.262985,110.11225 381.332167,96.4312144 C374.974256,85.4630378 367.19382,75.6652397 358.207675,67.3097467 C349.644067,59.3471408 339.951974,52.6585269 329.400581,47.4297214 C309.246824,37.4421997 286.197053,32.8980555 262.741003,34.2884758 C238.244789,35.7407829 214.62976,43.5121024 194.448959,56.7625875 C184.022311,63.6085751 174.692884,71.8196656 166.719703,81.1676908 C158.370568,90.9564248 151.525716,101.979924 146.37539,113.931882 C138.468332,132.280991 134.901543,152.890061 136.060511,173.531012 C137.219479,194.171807 143.071064,214.252339 152.982477,231.601415 C158.573474,241.387805 165.511024,250.576268 172.220346,259.462175 C180.183523,270.008709 188.417604,280.914373 194.473971,292.911339 C200.952718,305.745026 202.633018,318.759373 204.257981,331.3452 C205.235772,338.917888 206.24686,346.748438 208.281229,354.590865 C209.739553,360.212245 212.258675,365.196629 215.776535,369.425244 C215.900342,369.304128 216.028525,369.184574 216.160773,369.067364 C219.508087,366.099769 224.690147,364.82062 229.362755,365.809089 C244.66601,369.04611 254.841293,371.028049 267.083773,371.258405 C279.566518,371.493918 294.135844,369.890802 317.375389,365.727667 C319.436645,365.358847 321.732696,365.724698 323.674679,366.732233 C323.679368,366.734733 323.683589,366.736921 323.686403,366.738328 C325.103145,367.477843 326.046702,368.582741 326.491281,370.02192 C327.365431,372.852458 326.008716,375.873656 325.384837,377.041222 C316.861716,392.980343 287.582375,390.938392 270.088742,389.718004 C268.17349,389.584385 266.364537,389.458267 264.782875,389.37122 C241.821114,388.107855 225.421419,382.056706 215.766999,371.325762 C211.994179,376.338901 214.314459,384.397931 217.09839,390.534566 C218.155437,392.864696 219.259067,395.214204 220.47775,397.488074 C222.604661,396.376769 225.206321,395.974192 227.768275,396.383176 C269.054831,402.967552 293.659376,400.000269 308.360012,398.227276 C318.589851,396.993917 323.724702,396.374581 325.520836,400.564439 C326.563032,402.995369 326.349341,405.239546 324.885702,407.234612 C322.747379,410.149384 317.835756,412.53218 310.287457,414.316582 C304.192948,415.75748 296.379058,416.823308 287.063231,417.484527 C271.044492,418.621618 254.786893,418.211384 251.311083,417.863974 C244.357431,417.168217 237.102548,415.985649 231.154043,412.075531 C226.336838,408.909618 222.833203,404.215914 220.024417,399.23403 C217.357728,401.20628 216.667412,404.974026 216.925967,407.911147 C217.945653,419.50116 230.42027,427.062284 242.215982,428.541158 C246.537804,429.08298 251.570733,428.381909 256.89911,427.639893 C265.563702,426.433102 274.523116,425.185521 281.212272,429.323807 C283.898032,430.985216 287.021024,433.858574 286.646165,438.112507 C286.278341,442.284862 282.545851,446.369544 277.137125,448.518702 C271.797649,450.640511 265.282792,451.503331 258.393232,451.503331 C246.228131,451.503331 232.891714,448.814383 222.773175,445.619089 Z" id="Fill-1" transform="translate(219.3306, 242.1483) rotate(-12) translate(-219.3306, -242.1483)"></path>
        </g>
        <path d="M300.058257,311.906022 C300.462453,308.722882 742.795285,186.541646 682.235183,447.468784" id="Path-4-Copy-2" stroke="#61FFF8" stroke-width="2"></path>
    </g>
</svg>