<?xml version="1.0" encoding="UTF-8"?>
<svg width="800px" height="800px" viewBox="0 0 800 800" version="1.1" xmlns="http://www.w3.org/2000/svg" xmlns:xlink="http://www.w3.org/1999/xlink">
    <title>lines</title>
    <g id="lines" stroke="none" stroke-width="1" fill="none" fill-rule="evenodd">
        <path d="M459.652303,24.8034023 C640.424589,67.7221919 761.160599,264.703485 729.322083,464.765156 C697.484433,664.821386 525.126029,792.216473 344.353743,749.297683 C163.581456,706.378894 42.8454465,509.397601 74.6830963,309.341372 C106.521612,109.2797 278.880016,-18.1153874 459.652303,24.8034023 Z" id="Stroke-1" stroke="#52D5FF" stroke-width="2.671"></path>
        <path d="M537.926225,697.802983 C537.926225,697.802983 789.456468,656.332894 794.886334,444.121026 C800.32687,231.911691 609.393994,101.594446 451.82851,68.2321126 C289.940533,34.1769743 32.1760228,113.290259 26.6691597,338.30098 C22.85694,493.894257 102.72029,726.150883 674.826405,780.691776" id="Stroke-2" stroke="#52D5FF" stroke-width="2.479" stroke-linecap="round" stroke-linejoin="round"></path>
        <path d="M196.882432,135.440633 C196.882432,135.440633 -34.1932476,265.922447 10.813938,470.530333 C55.8103062,675.139655 269.495946,730.596125 428.287484,705.524177 C591.382526,679.552032 819.52266,510.871342 771.561127,294.013716 C738.400159,144.056704 566.947572,-38.7817562 6.14544371,115.84509" id="Stroke-2-Copy" stroke="#52D5FF" stroke-width="2.479" stroke-linecap="round" stroke-linejoin="round"></path>
    </g>
</svg>