<?xml version="1.0" encoding="UTF-8"?>
<svg width="880px" height="360px" viewBox="0 0 880 360" version="1.1" xmlns="http://www.w3.org/2000/svg" xmlns:xlink="http://www.w3.org/1999/xlink">
    <title>puzzle2 copy 2</title>
    <g id="puzzle2-copy-2" stroke="none" stroke-width="1" fill="none" fill-rule="evenodd">
        <g id="Group-5" transform="translate(598.2484, 103.1376) rotate(-19) translate(-598.2484, -103.1376)translate(57.2484, -64.8624)">
            <path d="M154.19582,202.341594 C141.755525,202.24688 129.6777,195.920002 123.1316,183.934655 C113.94001,167.108083 120.04249,145.456522 136.58086,135.78219 C149.94897,127.964247 174.06675,128.20509 178.5841,146.216938 C182.18716,160.583659 175.146045,178.968949 166.598245,190.49967 C163.070925,195.259712 158.867355,199.156506 154.19582,202.341594 M298.894385,57.9653806 C303.83642,58.0682127 309.265355,58.0384455 313.239,59.8407127 C318.38391,62.1733768 318.91409,68.3595371 312.998255,70.1780409 C308.01835,71.7069913 303.871585,67.5774722 301.664305,63.7618615 C300.60665,61.9325333 299.68154,59.9841364 298.894385,57.9653806 M374.125845,213.157903 C349.05861,215.720586 323.92916,217.03846 298.81594,215.736823 C253.46391,213.38251 198.273795,199.662548 189.54476,147.670117 C187.27797,134.163938 188.492515,120.557632 190.55643,107.121812 C192.761005,92.7577965 194.88443,78.3748386 197.23237,64.0351783 C199.123165,52.4773959 207.69531,44.8867662 219.68928,46.3345333 C225.49421,47.035415 231.28291,48.1340944 237.06079,49.0298158 C253.580225,51.5897929 270.096955,54.1903616 286.6218,56.7151593 C288.912935,57.064247 291.201365,57.4079226 293.50332,57.6758272 C294.67188,57.8111325 295.929705,57.8814913 297.24163,57.924789 C298.53462,61.4075486 300.24959,64.6196974 302.432525,67.2554455 C306.214115,71.8152355 318.673345,74.2859111 318.786955,65.4640027 C318.90868,56.2118234 304.55595,57.3294455 298.504865,56.9397661 C296.86293,52.4368043 295.8729,47.6280524 295.513135,43.0060219 C294.1958,26.0441441 303.07902,9.26898768 319.593045,3.29931595 C336.439785,-2.78942449 355.49651,4.7389648 363.711595,20.5940449 C371.92127,36.4410067 366.83046,55.2917471 352.994385,66.0322852 C352.648145,66.3001898 352.83479,66.9821287 353.26218,67.0497814 C375.17809,70.4486516 397.096705,73.8448157 419.012615,77.2436859 C427.912065,78.6238004 440.587695,78.6535676 447.220355,85.5433156 C456.460635,95.1391706 450.688165,112.076693 448.89475,123.650712 C447.27175,134.123346 446.03827,144.747522 444.012225,155.152502 C442.97621,160.483533 440.23875,165.270636 435.583445,168.252766 C429.042755,172.439113 423.08905,170.804625 416.01818,169.743831 C407.74629,168.504434 399.15521,170.206575 391.940975,174.425395 C378.464665,182.308285 371.420845,198.101124 374.125845,213.157903 M988.582825,264.665941 C931.182725,265.49401 873.241625,259.859895 817.76478,244.697578 C792.210645,237.713117 767.77097,228.325632 743.769505,217.160235 C716.19744,204.333289 686.607445,196.420632 656.511615,192.391239 C595.784365,184.259388 534.218565,191.189727 473.91059,199.538067 C441.296405,204.051853 408.398195,209.596666 375.391785,213.02801 C374.59922,208.96885 374.504545,204.731086 375.218665,200.493323 C378.28884,182.254163 395.522395,169.00777 413.90828,170.709911 C420.75193,171.34314 426.289065,173.743457 433.040745,170.945342 C438.196475,168.807518 442.335125,164.534575 444.228625,159.271197 C446.51435,152.919964 446.755095,145.353689 447.777585,138.753495 C449.33837,128.684071 450.899155,118.617354 452.457235,108.54793 C453.49325,101.871964 454.73755,95.3935446 451.3022,89.0801973 C447.45569,82.006434 440.755405,79.3923348 433.295015,78.234121 C414.322145,75.2925829 395.35198,72.3510447 376.37911,69.4095065 C369.494885,68.3405943 362.1995,67.8534951 355.439705,66.1621783 C355.336915,66.1378234 354.90682,66.1161745 354.498365,66.0755829 C356.36752,65.4234111 360.58732,60.5118272 361.098565,59.8596554 C365.07762,54.7667623 367.655485,48.6834341 368.569775,42.2889036 C372.74359,13.1441327 341.25198,-9.51139393 314.94315,4.01102205 C303.11689,10.0889381 295.502315,22.090522 294.32023,35.2367891 C293.733245,41.7882738 294.458185,49.7658768 296.843995,56.7990486 C279.542815,55.2105639 262.28221,51.7169799 245.13792,49.0568768 C231.247745,46.9028158 209.8539,39.2472395 199.83999,53.2946402 C195.47953,59.4104417 195.32805,68.4163653 194.216295,75.5929607 C192.733955,85.1644607 191.24891,94.7359607 189.76657,104.307461 C187.84061,116.747434 186.30417,129.227999 187.551175,141.830338 C189.412215,160.635075 197.45418,178.075934 211.96921,190.43743 C232.34327,207.786281 260.15608,213.523227 286.094325,216.020964 C315.42464,218.843433 344.944305,217.560739 374.396345,214.513663 C374.73447,216.056143 375.17809,217.5878 375.727205,219.100514 C378.394335,226.428651 383.387765,232.828594 389.847305,237.190838 C393.261015,239.493735 397.053425,241.247292 401.040595,242.294556 C407.235045,243.923632 413.53499,243.1118 419.04237,246.981533 C431.563815,255.784498 425.78323,272.811323 423.84645,285.302712 C422.123365,296.419399 420.797915,307.67951 418.66908,318.725838 C416.59705,329.46367 407.554235,336.05304 396.73694,334.797406 C392.53878,334.310307 388.354145,333.498475 384.177625,332.849009 C371.5588,330.892494 358.93727,328.935979 346.318445,326.979464 C338.241315,325.726536 330.86478,321.840567 328.194945,313.503051 C326.41235,307.942002 328.27339,303.214433 328.968575,297.723742 C329.569085,292.966407 329.260715,288.119769 328.016415,283.486914 C323.55587,266.874124 307.674815,255.237865 290.492655,256.052403 C273.310495,256.866941 258.39242,269.999678 255.60627,287.026502 C254.645995,292.890636 254.66493,298.089067 250.62907,302.881582 C246.200985,308.139548 239.9876,310.188071 233.2792,309.449303 C229.538185,309.037975 225.80258,308.29109 222.08591,307.714689 C209.223635,305.720288 196.36136,303.725887 183.50179,301.731487 C176.963805,300.716697 170.71796,298.895487 166.820055,292.912284 C163.357655,287.602903 163.45774,282.006674 164.369325,276.118185 C168.129275,251.852525 171.889225,227.589571 175.649175,203.326617 C176.006235,201.010189 176.366,198.693762 176.725765,196.377334 C176.7988,195.906472 176.31731,195.354426 175.83041,195.689983 C169.874,199.781617 163.119615,201.951914 156.384165,202.29559 C163.952755,196.737247 169.741455,189.37393 173.60149,180.811808 C178.667955,169.57064 183.812865,154.297373 178.521885,142.184838 C174.377825,132.691815 163.82021,129.498609 154.0768,129.650151 C141.33084,129.850403 129.25572,136.894399 122.73126,147.832483 C108.738295,171.291724 125.238795,201.84367 152.023705,203.759594 C137.75483,212.600445 119.65297,215.436445 103.160585,216.367346 C77.00053,217.847586 50.786375,215.081945 24.704765,213.39604 C16.70067,212.879174 8.3855,212.264888 9.09494702e-13,211.983453 L9.09494702e-13,213.320269 C5.602055,213.504285 11.152715,213.820899 16.57624,214.121277 C42.82015,215.579869 69.06406,218.521407 95.381005,217.89359 C115.27087,217.420021 137.17055,215.160422 154.166065,203.848895 C160.14141,203.935491 167.977795,202.6988 172.82786,199.072617 C174.247985,198.009117 175.086535,195.630449 175.43548,196.794075 C175.670815,197.570727 175.048665,199.29993 174.924235,200.092819 C173.690755,208.062304 172.45457,216.031788 171.22109,224.001273 C168.443055,241.923819 165.435095,259.830128 162.886985,277.785147 C161.734655,285.911586 163.90677,293.851303 170.882965,298.827834 C176.509365,302.843697 184.202385,303.062891 190.81611,304.088506 C200.940925,305.658048 211.06574,307.230296 221.19326,308.799838 C227.34984,309.755093 234.672275,311.852326 240.882955,310.372086 C245.68974,309.227403 249.977165,306.253391 252.77684,302.186113 C257.659365,295.0907 256.00661,286.014418 259.51229,278.30472 C267.175555,261.456498 287.165505,253.035094 304.57218,259.416094 C322.903965,266.135357 330.13443,284.4557 326.78564,302.581204 C324.575655,314.550315 331.00544,325.309796 343.22122,327.723643 C359.48368,330.935792 376.111315,332.824654 392.492795,335.362983 C399.980235,336.523903 407.126845,336.599674 413.234735,331.190166 C419.19385,325.910551 419.894445,318.715013 421.02784,311.386876 C422.6292,301.065784 424.227855,290.744693 425.82651,280.423601 C426.81654,274.039895 429.031935,266.449265 428.19068,259.91943 C427.555005,254.983491 425.066405,250.358754 421.301045,247.10872 C415.344635,241.969823 408.50369,243.01438 401.365195,241.120105 C388.33521,237.667113 378.643195,226.980697 375.68122,214.378357 C409.4829,210.822533 443.19261,204.98546 476.412715,200.41214 C546.650745,190.740514 619.53697,183.04164 689.361135,199.670666 C706.75699,203.813716 723.801195,209.474892 740.11505,216.819266 C752.98003,222.610334 765.64484,228.5773 778.880405,233.50512 C807.147655,244.02917 836.507725,251.519674 866.20592,256.68022 C936.88216,268.960533 1010.14979,269.277147 1082,259.318674 L1082,257.711246 C1050.95472,261.903006 1019.71197,264.216727 988.582825,264.665941" id="Fill-1" fill="#00FC87"></path>
            <path d="M154.19582,202.341594 C141.755525,202.24688 129.6777,195.920002 123.1316,183.934655 C113.94001,167.108083 120.04249,145.456522 136.58086,135.78219 C149.94897,127.964247 174.06675,128.20509 178.5841,146.216938 C182.18716,160.583659 175.146045,178.968949 166.598245,190.49967 C163.070925,195.259712 158.867355,199.156506 154.19582,202.341594 Z M298.894385,57.9653806 C303.83642,58.0682127 309.265355,58.0384455 313.239,59.8407127 C318.38391,62.1733768 318.91409,68.3595371 312.998255,70.1780409 C308.01835,71.7069913 303.871585,67.5774722 301.664305,63.7618615 C300.60665,61.9325333 299.68154,59.9841364 298.894385,57.9653806 Z M374.125845,213.157903 C349.05861,215.720586 323.92916,217.03846 298.81594,215.736823 C253.46391,213.38251 198.273795,199.662548 189.54476,147.670117 C187.27797,134.163938 188.492515,120.557632 190.55643,107.121812 C192.761005,92.7577965 194.88443,78.3748386 197.23237,64.0351783 C199.123165,52.4773959 207.69531,44.8867662 219.68928,46.3345333 C225.49421,47.035415 231.28291,48.1340944 237.06079,49.0298158 C253.580225,51.5897929 270.096955,54.1903616 286.6218,56.7151593 C288.912935,57.064247 291.201365,57.4079226 293.50332,57.6758272 C294.67188,57.8111325 295.929705,57.8814913 297.24163,57.924789 C298.53462,61.4075486 300.24959,64.6196974 302.432525,67.2554455 C306.214115,71.8152355 318.673345,74.2859111 318.786955,65.4640027 C318.90868,56.2118234 304.55595,57.3294455 298.504865,56.9397661 C296.86293,52.4368043 295.8729,47.6280524 295.513135,43.0060219 C294.1958,26.0441441 303.07902,9.26898768 319.593045,3.29931595 C336.439785,-2.78942449 355.49651,4.7389648 363.711595,20.5940449 C371.92127,36.4410067 366.83046,55.2917471 352.994385,66.0322852 C352.648145,66.3001898 352.83479,66.9821287 353.26218,67.0497814 C375.17809,70.4486516 397.096705,73.8448157 419.012615,77.2436859 C427.912065,78.6238004 440.587695,78.6535676 447.220355,85.5433156 C456.460635,95.1391706 450.688165,112.076693 448.89475,123.650712 C447.27175,134.123346 446.03827,144.747522 444.012225,155.152502 C442.97621,160.483533 440.23875,165.270636 435.583445,168.252766 C429.042755,172.439113 423.08905,170.804625 416.01818,169.743831 C407.74629,168.504434 399.15521,170.206575 391.940975,174.425395 C378.464665,182.308285 371.420845,198.101124 374.125845,213.157903 Z M988.582825,264.665941 C931.182725,265.49401 873.241625,259.859895 817.76478,244.697578 C792.210645,237.713117 767.77097,228.325632 743.769505,217.160235 C716.19744,204.333289 686.607445,196.420632 656.511615,192.391239 C595.784365,184.259388 534.218565,191.189727 473.91059,199.538067 C441.296405,204.051853 408.398195,209.596666 375.391785,213.02801 C374.59922,208.96885 374.504545,204.731086 375.218665,200.493323 C378.28884,182.254163 395.522395,169.00777 413.90828,170.709911 C420.75193,171.34314 426.289065,173.743457 433.040745,170.945342 C438.196475,168.807518 442.335125,164.534575 444.228625,159.271197 C446.51435,152.919964 446.755095,145.353689 447.777585,138.753495 C449.33837,128.684071 450.899155,118.617354 452.457235,108.54793 C453.49325,101.871964 454.73755,95.3935446 451.3022,89.0801973 C447.45569,82.006434 440.755405,79.3923348 433.295015,78.234121 C414.322145,75.2925829 395.35198,72.3510447 376.37911,69.4095065 C369.494885,68.3405943 362.1995,67.8534951 355.439705,66.1621783 C355.336915,66.1378234 354.90682,66.1161745 354.498365,66.0755829 C356.36752,65.4234111 360.58732,60.5118272 361.098565,59.8596554 C365.07762,54.7667623 367.655485,48.6834341 368.569775,42.2889036 C372.74359,13.1441327 341.25198,-9.51139393 314.94315,4.01102205 C303.11689,10.0889381 295.502315,22.090522 294.32023,35.2367891 C293.733245,41.7882738 294.458185,49.7658768 296.843995,56.7990486 C279.542815,55.2105639 262.28221,51.7169799 245.13792,49.0568768 C231.247745,46.9028158 209.8539,39.2472395 199.83999,53.2946402 C195.47953,59.4104417 195.32805,68.4163653 194.216295,75.5929607 C192.733955,85.1644607 191.24891,94.7359607 189.76657,104.307461 C187.84061,116.747434 186.30417,129.227999 187.551175,141.830338 C189.412215,160.635075 197.45418,178.075934 211.96921,190.43743 C232.34327,207.786281 260.15608,213.523227 286.094325,216.020964 C315.42464,218.843433 344.944305,217.560739 374.396345,214.513663 C374.73447,216.056143 375.17809,217.5878 375.727205,219.100514 C378.394335,226.428651 383.387765,232.828594 389.847305,237.190838 C393.261015,239.493735 397.053425,241.247292 401.040595,242.294556 C407.235045,243.923632 413.53499,243.1118 419.04237,246.981533 C431.563815,255.784498 425.78323,272.811323 423.84645,285.302712 C422.123365,296.419399 420.797915,307.67951 418.66908,318.725838 C416.59705,329.46367 407.554235,336.05304 396.73694,334.797406 C392.53878,334.310307 388.354145,333.498475 384.177625,332.849009 C371.5588,330.892494 358.93727,328.935979 346.318445,326.979464 C338.241315,325.726536 330.86478,321.840567 328.194945,313.503051 C326.41235,307.942002 328.27339,303.214433 328.968575,297.723742 C329.569085,292.966407 329.260715,288.119769 328.016415,283.486914 C323.55587,266.874124 307.674815,255.237865 290.492655,256.052403 C273.310495,256.866941 258.39242,269.999678 255.60627,287.026502 C254.645995,292.890636 254.66493,298.089067 250.62907,302.881582 C246.200985,308.139548 239.9876,310.188071 233.2792,309.449303 C229.538185,309.037975 225.80258,308.29109 222.08591,307.714689 C209.223635,305.720288 196.36136,303.725887 183.50179,301.731487 C176.963805,300.716697 170.71796,298.895487 166.820055,292.912284 C163.357655,287.602903 163.45774,282.006674 164.369325,276.118185 C168.129275,251.852525 171.889225,227.589571 175.649175,203.326617 C176.006235,201.010189 176.366,198.693762 176.725765,196.377334 C176.7988,195.906472 176.31731,195.354426 175.83041,195.689983 C169.874,199.781617 163.119615,201.951914 156.384165,202.29559 C163.952755,196.737247 169.741455,189.37393 173.60149,180.811808 C178.667955,169.57064 183.812865,154.297373 178.521885,142.184838 C174.377825,132.691815 163.82021,129.498609 154.0768,129.650151 C141.33084,129.850403 129.25572,136.894399 122.73126,147.832483 C108.738295,171.291724 125.238795,201.84367 152.023705,203.759594 C137.75483,212.600445 119.65297,215.436445 103.160585,216.367346 C77.00053,217.847586 50.786375,215.081945 24.704765,213.39604 C16.70067,212.879174 8.3855,212.264888 9.09494702e-13,211.983453 L9.09494702e-13,213.320269 C5.602055,213.504285 11.152715,213.820899 16.57624,214.121277 C42.82015,215.579869 69.06406,218.521407 95.381005,217.89359 C115.27087,217.420021 137.17055,215.160422 154.166065,203.848895 C160.14141,203.935491 167.977795,202.6988 172.82786,199.072617 C174.247985,198.009117 175.086535,195.630449 175.43548,196.794075 C175.670815,197.570727 175.048665,199.29993 174.924235,200.092819 C173.690755,208.062304 172.45457,216.031788 171.22109,224.001273 C168.443055,241.923819 165.435095,259.830128 162.886985,277.785147 C161.734655,285.911586 163.90677,293.851303 170.882965,298.827834 C176.509365,302.843697 184.202385,303.062891 190.81611,304.088506 C200.940925,305.658048 211.06574,307.230296 221.19326,308.799838 C227.34984,309.755093 234.672275,311.852326 240.882955,310.372086 C245.68974,309.227403 249.977165,306.253391 252.77684,302.186113 C257.659365,295.0907 256.00661,286.014418 259.51229,278.30472 C267.175555,261.456498 287.165505,253.035094 304.57218,259.416094 C322.903965,266.135357 330.13443,284.4557 326.78564,302.581204 C324.575655,314.550315 331.00544,325.309796 343.22122,327.723643 C359.48368,330.935792 376.111315,332.824654 392.492795,335.362983 C399.980235,336.523903 407.126845,336.599674 413.234735,331.190166 C419.19385,325.910551 419.894445,318.715013 421.02784,311.386876 C422.6292,301.065784 424.227855,290.744693 425.82651,280.423601 C426.81654,274.039895 429.031935,266.449265 428.19068,259.91943 C427.555005,254.983491 425.066405,250.358754 421.301045,247.10872 C415.344635,241.969823 408.50369,243.01438 401.365195,241.120105 C388.33521,237.667113 378.643195,226.980697 375.68122,214.378357 C409.4829,210.822533 443.19261,204.98546 476.412715,200.41214 C546.650745,190.740514 619.53697,183.04164 689.361135,199.670666 C706.75699,203.813716 723.801195,209.474892 740.11505,216.819266 C752.98003,222.610334 765.64484,228.5773 778.880405,233.50512 C807.147655,244.02917 836.507725,251.519674 866.20592,256.68022 C936.88216,268.960533 1010.14979,269.277147 1082,259.318674 L1082,257.711246 C1050.95472,261.903006 1019.71197,264.216727 988.582825,264.665941 Z" id="Stroke-3" stroke="#00FC87"></path>
        </g>
        <path d="M106.151781,329.268847 C55.1567202,336.384756 14.4113656,346.447165 -16.0842824,359.456074" id="Path-3" stroke="#00FC87" stroke-width="2" stroke-linecap="round" transform="translate(45.0337, 344.3625) rotate(-8) translate(-45.0337, -344.3625)"></path>
    </g>
</svg>